<svg version="1.1" id="Layer_1" xmlns="http://www.w3.org/2000/svg" xmlns:xlink="http://www.w3.org/1999/xlink" x="0px" y="0px"
	 width="100%" viewBox="0 0 496 496" enable-background="new 0 0 496 496" xml:space="preserve">
<path fill="#000000" opacity="1.000000" stroke="none" 
	d="
M105.468658,497.000000 
	C97.664108,490.863556 95.486992,483.075134 95.500801,473.544922 
	C95.716637,324.645569 95.731247,175.745682 95.507652,26.846359 
	C95.488953,14.395510 100.150528,6.138552 111.744263,1.226489 
	C201.687561,1.000000 291.375122,1.000000 381.531342,1.000000 
	C394.320770,5.519687 399.510956,14.102253 399.490570,27.432455 
	C399.262695,176.381638 399.295441,325.331360 399.471558,474.280670 
	C399.482178,483.276642 397.167603,490.599152 390.191498,496.728149 
	C295.312439,497.000000 200.624878,497.000000 105.468658,497.000000 
M103.328323,321.499939 
	C103.326813,373.324371 103.314545,425.148804 103.334435,476.973236 
	C103.337723,485.552612 107.140106,489.720001 115.087250,489.721436 
	C175.910446,489.732330 236.735947,489.978149 297.555206,489.476929 
	C312.758362,489.351685 328.187164,489.299561 343.081604,484.762970 
	C355.437378,480.999573 367.411346,476.527588 377.465729,468.143585 
	C385.990356,461.035217 390.911194,452.649597 390.884155,440.672516 
	C390.584869,308.028290 390.696625,175.383179 390.693359,42.738285 
	C390.693176,35.101639 390.677704,35.099770 382.896851,35.031937 
	C380.897278,35.014503 378.897552,35.004990 376.897919,35.005177 
	C288.579315,35.013416 200.260681,35.025349 111.942062,35.029217 
	C103.344009,35.029594 103.331215,35.006985 103.330933,43.545368 
	C103.327850,135.863541 103.329109,228.181732 103.328323,321.499939 
M184.499939,30.670424 
	C189.830048,30.671427 195.160156,30.673283 200.490265,30.673302 
	C255.456650,30.673506 310.423157,30.623293 365.389191,30.762911 
	C370.087799,30.774845 372.203583,29.552155 371.673431,24.625626 
	C371.372284,21.827047 371.643951,18.968346 371.631989,16.136826 
	C371.603455,9.372078 371.597321,9.359293 364.661102,9.359162 
	C288.540985,9.357733 212.420883,9.360577 136.300781,9.362658 
	C135.467972,9.362680 134.630661,9.425466 133.803146,9.360583 
	C130.636139,9.112267 129.211502,10.463074 129.322952,13.717307 
	C129.459671,17.709990 129.586487,21.729959 129.275757,25.703583 
	C128.952560,29.836529 130.753159,30.774233 134.530518,30.738436 
	C150.852402,30.583755 167.176575,30.670671 184.499939,30.670424 
M103.374550,21.079212 
	C103.361687,22.743994 103.455894,24.417978 103.313789,26.071653 
	C103.013382,29.567245 104.588791,30.837694 108.002121,30.706827 
	C112.657204,30.528351 117.324120,30.617783 121.985397,30.658035 
	C124.458160,30.679390 125.678345,29.622845 125.650688,27.079996 
	C125.598175,22.252508 125.631516,17.424129 125.616837,12.596159 
	C125.611687,10.902919 124.973785,9.563771 123.111443,9.486581 
	C112.382004,9.041860 106.259338,8.712157 103.374550,21.079212 
M375.365509,25.230068 
	C375.639893,27.198633 374.471527,29.675348 377.567810,30.581333 
	C387.143982,33.383389 391.676544,29.731205 390.639099,19.962397 
	C390.044220,14.360929 385.411377,9.986187 379.662415,9.462396 
	C376.739838,9.196115 375.262268,10.232973 375.343262,13.327234 
	C375.438995,16.982479 375.368347,20.642082 375.365509,25.230068 
z"/>
<path fill="#000000" opacity="1.000000" stroke="none" 
	d="
M221.999908,244.344727 
	C196.002060,244.342529 170.504211,244.349808 145.006378,244.333771 
	C130.678802,244.324768 121.300522,235.270065 120.902016,220.794220 
	C120.668213,212.301117 120.828987,203.796906 120.828400,195.297684 
	C120.825432,152.634644 120.856148,109.971558 120.801727,67.308578 
	C120.792114,59.773296 122.841454,53.151455 128.501450,47.986668 
	C132.168365,44.640579 136.428574,42.625828 141.576126,42.627701 
	C213.736572,42.653931 285.897034,42.608212 358.057434,42.669857 
	C370.217804,42.680244 379.204254,52.777752 379.249359,66.379738 
	C379.342773,94.543709 379.276764,122.708191 379.276520,150.872467 
	C379.276306,173.537201 378.916077,196.209763 379.407043,218.863846 
	C379.718262,233.222519 368.888977,244.784958 353.984894,244.567764 
	C310.164795,243.929169 266.329346,244.342804 221.999908,244.344727 
M298.500061,49.332626 
	C249.856720,49.332329 201.212219,49.513062 152.570831,49.204823 
	C140.366196,49.127480 128.894699,59.308304 129.065369,72.757042 
	C129.661484,119.727112 129.654755,166.714081 129.051254,213.684036 
	C128.886841,226.480835 139.786743,237.051605 152.061905,236.968124 
	C217.361160,236.523956 282.666321,236.543137 347.966248,236.935059 
	C361.278320,237.014954 370.994080,225.081482 370.885223,213.932343 
	C370.424927,166.792557 370.413300,119.642990 370.886932,72.503525 
	C370.996613,61.587975 361.765381,49.002178 347.476044,49.267075 
	C331.489136,49.563442 315.492493,49.333622 298.500061,49.332626 
z"/>
<path fill="#000000" opacity="1.000000" stroke="none" 
	d="
M135.079803,323.773499 
	C148.727448,323.748138 148.727432,323.748138 148.726471,310.710510 
	C148.725708,300.694092 148.725723,300.692505 158.835846,300.687988 
	C163.330231,300.685974 167.826996,300.600830 172.318390,300.717896 
	C177.593582,300.855408 179.125656,302.443359 179.207214,307.648560 
	C179.272415,311.809082 179.282913,315.971741 179.232712,320.132416 
	C179.202438,322.642242 180.305145,323.769836 182.833008,323.737854 
	C186.993484,323.685242 191.158218,323.666870 195.316238,323.794281 
	C200.708755,323.959534 202.173096,325.430542 202.234924,330.662903 
	C202.299820,336.155273 202.061356,341.657257 202.303558,347.139648 
	C202.509186,351.793671 200.435455,353.383972 196.034424,353.183746 
	C191.716064,352.987335 187.379761,353.224518 183.053299,353.152557 
	C180.294769,353.106720 179.163742,354.316193 179.207657,357.057678 
	C179.284943,361.883240 179.160965,366.711670 179.181931,371.538635 
	C179.195389,374.640839 177.717285,376.151611 174.626801,376.139313 
	C167.969208,376.112823 161.306854,376.240814 154.655762,376.022369 
	C150.826477,375.896606 148.512665,373.977539 148.716202,369.668030 
	C148.904449,365.682251 148.591400,361.672760 148.781631,357.687195 
	C148.950653,354.145203 147.382172,352.978821 144.034424,353.074402 
	C139.879227,353.193024 135.705963,353.153992 131.557678,352.901184 
	C127.736366,352.668304 125.447464,350.880615 125.666534,346.530426 
	C125.900635,341.881744 125.699547,337.211487 125.700508,332.550629 
	C125.702316,323.842010 125.705948,323.842010 135.079803,323.773499 
z"/>
<path fill="#000000" opacity="1.000000" stroke="none" 
	d="
M379.116119,320.467651 
	C379.397644,330.876892 374.520355,337.914856 365.619080,340.472168 
	C357.565430,342.785919 349.173798,339.472534 345.003876,332.332397 
	C339.474121,322.863770 342.992615,310.972076 352.669647,306.423981 
	C362.807373,301.659332 374.147186,306.256226 378.016876,316.716064 
	C378.419617,317.804749 378.701111,318.938263 379.116119,320.467651 
z"/>
<path fill="#000000" opacity="1.000000" stroke="none" 
	d="
M320.016113,361.368835 
	C309.460815,365.725647 299.570435,362.238251 295.189178,352.886841 
	C291.007080,343.960541 294.510712,333.183319 303.027679,328.775299 
	C311.998871,324.132233 322.998535,327.311401 327.720673,335.912292 
	C332.862885,345.278290 329.958313,355.295593 320.016113,361.368835 
z"/>
<path fill="#000000" opacity="1.000000" stroke="none" 
	d="
M275.304077,406.283203 
	C267.155548,410.489716 259.330688,414.504181 251.495163,418.497681 
	C248.417648,420.066162 245.275131,420.773071 243.378204,417.004822 
	C241.508240,413.290161 243.802353,411.129913 246.929474,409.545624 
	C254.478638,405.721039 262.035278,401.910522 269.552094,398.023102 
	C272.397858,396.551361 274.984589,396.343048 277.043671,399.170227 
	C279.040314,401.911621 277.900970,404.147491 275.304077,406.283203 
z"/>
<path fill="#000000" opacity="1.000000" stroke="none" 
	d="
M214.489822,411.579895 
	C209.716354,414.022125 205.320557,416.398499 200.801147,418.510345 
	C197.906372,419.863068 194.653549,420.318207 193.008072,416.827179 
	C191.459946,413.542694 193.202286,411.167511 196.325485,409.587769 
	C203.903046,405.754852 211.420914,401.804108 218.977798,397.930054 
	C221.883163,396.440582 224.917282,395.774139 226.816513,399.200653 
	C228.774353,402.732880 226.979248,405.215118 223.723221,406.879089 
	C220.757843,408.394501 217.784790,409.894928 214.489822,411.579895 
z"/>
<path fill="#000000" opacity="1.000000" stroke="none" 
	d="
M385.759277,438.187439 
	C383.525146,443.143066 381.083862,443.545471 378.527740,439.345154 
	C371.790192,428.273651 365.280396,417.063080 358.734131,405.876160 
	C357.491516,403.752625 356.794617,401.338318 359.357941,399.720581 
	C361.655548,398.270477 363.583893,399.516418 364.770782,401.593170 
	C371.691406,413.701996 379.488281,425.304596 385.759277,438.187439 
z"/>
<path fill="#000000" opacity="1.000000" stroke="none" 
	d="
M353.137665,428.789368 
	C350.162903,423.766052 347.346222,419.072937 344.610077,414.333313 
	C343.292450,412.050812 342.343445,409.473846 345.308716,407.874084 
	C347.884460,406.484436 349.631195,408.182190 350.936676,410.405884 
	C357.401611,421.417694 363.904877,432.406982 370.371826,443.417633 
	C371.620331,445.543365 372.505585,447.933136 369.955627,449.580841 
	C367.080688,451.438507 365.335022,449.325928 363.983429,447.076965 
	C360.395294,441.106812 356.875702,435.095459 353.137665,428.789368 
z"/>
<path fill="#000000" opacity="1.000000" stroke="none" 
	d="
M338.006104,435.928894 
	C335.129150,431.024902 332.426056,426.443024 329.769348,421.834381 
	C328.560089,419.736664 328.283478,417.538727 330.698486,416.216492 
	C332.965820,414.975128 334.920288,415.997284 336.175751,418.120392 
	C342.861053,429.426025 349.513458,440.751129 356.165619,452.076324 
	C357.375031,454.135345 357.859650,456.346985 355.438049,457.724518 
	C352.913147,459.160797 351.019501,457.798981 349.672394,455.532715 
	C345.849243,449.101044 342.023621,442.670837 338.006104,435.928894 
z"/>
<path fill="#000000" opacity="1.000000" stroke="none" 
	d="
M312.446136,443.625732 
	C316.925751,451.232544 321.279602,458.489105 325.512115,465.815796 
	C326.882019,468.187164 329.057709,471.073639 325.402283,473.073669 
	C322.313904,474.763458 320.587463,472.178741 319.184631,469.793243 
	C312.877106,459.067230 306.588806,448.329865 300.265564,437.613159 
	C298.972870,435.422272 298.183197,433.108887 300.683502,431.476959 
	C303.484222,429.648987 305.311523,431.562439 306.703125,433.874908 
	C308.585114,437.002289 310.418854,440.158691 312.446136,443.625732 
z"/>
<path fill="#000000" opacity="1.000000" stroke="none" 
	d="
M325.475952,447.491089 
	C321.994293,441.590088 318.661713,436.026123 315.423126,430.407959 
	C314.111450,428.132446 313.153442,425.486420 316.131622,423.929108 
	C318.673248,422.600037 320.491547,424.330536 321.791168,426.545013 
	C328.271820,437.587646 334.774811,448.617188 341.252167,459.661743 
	C342.553925,461.881409 343.035919,464.263855 340.430847,465.737488 
	C337.798035,467.226746 336.045166,465.434418 334.764923,463.285706 
	C331.701202,458.143555 328.693268,452.968262 325.475952,447.491089 
z"/>
<path fill="#000000" opacity="1.000000" stroke="none" 
	d="
M289.390198,452.522766 
	C288.107635,450.348358 286.974518,448.510223 285.954468,446.611389 
	C284.735901,444.343048 283.517822,441.732269 286.514862,440.133179 
	C289.361145,438.614563 291.118591,440.776886 292.467072,443.043457 
	C295.690002,448.460663 298.899445,453.885895 302.094543,459.319580 
	C305.290253,464.754333 308.498779,470.182159 311.625702,475.656433 
	C312.846619,477.793915 313.610229,480.295532 310.991333,481.786652 
	C308.484985,483.213684 306.644409,481.625549 305.319366,479.379700 
	C300.092773,470.520721 294.835602,461.679810 289.390198,452.522766 
z"/>
<path fill="#000000" opacity="1.000000" stroke="none" 
	d="
M250.787262,204.166077 
	C214.832596,204.544067 188.070679,183.341858 180.277039,148.694870 
	C172.715256,115.078659 195.364609,78.248795 228.827515,69.747452 
	C269.190399,59.493134 307.391266,82.601051 314.686584,123.691010 
	C322.255035,166.319504 292.116852,199.070862 256.696503,203.392746 
	C254.879211,203.614471 253.068954,203.893768 250.787262,204.166077 
M275.803284,190.325165 
	C299.586823,176.917099 312.258881,152.412903 308.556366,126.989868 
	C303.175079,90.039764 266.531311,66.375137 230.355988,76.487877 
	C197.630234,85.636299 178.228821,121.857445 188.555923,153.930389 
	C200.203598,190.104675 240.476929,207.572952 275.803284,190.325165 
z"/>
<path fill="#000000" opacity="1.000000" stroke="none" 
	d="
M231.576309,156.594101 
	C229.328537,158.835403 227.373383,160.882233 225.310608,162.814163 
	C223.539627,164.472839 221.440659,165.120209 219.606705,163.104935 
	C217.916595,161.247726 218.861008,159.345001 220.374146,157.808197 
	C225.859711,152.236862 231.384308,146.703873 236.903458,141.165680 
	C241.416412,136.637146 243.454224,130.863754 243.653366,124.789001 
	C244.051086,112.656738 243.756119,100.502380 243.806656,88.357399 
	C243.813477,86.717392 243.995956,85.035500 244.404892,83.452515 
	C244.768753,82.044044 246.031113,81.318748 247.467957,81.328728 
	C248.889648,81.338577 250.170029,81.988663 250.489380,83.467613 
	C250.870621,85.233154 251.124542,87.062584 251.134216,88.865944 
	C251.189575,99.180710 251.140488,109.495979 251.159576,119.811012 
	C251.168091,124.414444 250.836044,128.899689 253.604187,133.238174 
	C255.654373,136.451385 254.053528,140.748428 250.603104,141.453278 
	C244.744400,142.650101 241.746307,146.943222 237.902130,150.434326 
	C235.810135,152.334167 233.844742,154.373398 231.576309,156.594101 
z"/>
</svg>